<?xml version="1.0" encoding="UTF-8" standalone="no"?>
<svg width="11.2889mm" height="11.2889mm"
 viewBox="0 0 32 32"
 xmlns="http://www.w3.org/2000/svg" xmlns:xlink="http://www.w3.org/1999/xlink"  version="1.2" baseProfile="tiny">
<title>Qt SVG Document</title>
<desc>Generated with Qt</desc>
<defs>
</defs>
<g fill="none" stroke="black" stroke-width="1" fill-rule="evenodd" stroke-linecap="square" stroke-linejoin="bevel" >

<g fill="none" stroke="none" transform="matrix(1,0,0,1,0,0)"
font-family="MS Shell Dlg 2" font-size="8.25" font-weight="400" font-style="normal" 
>
</g>

<g fill="none" stroke="none" transform="matrix(1,0,0,1,0,0)"
font-family="MS Shell Dlg 2" font-size="8.25" font-weight="400" font-style="normal" 
>
</g>

<g fill="none" stroke="#000000" stroke-opacity="1" stroke-width="0.850394" stroke-linecap="square" stroke-linejoin="bevel" transform="matrix(1,0,0,1,0,0)"
font-family="MS Shell Dlg 2" font-size="8.25" font-weight="400" font-style="normal" 
>
<path vector-effect="none" fill-rule="evenodd" d="M-17.2026,16 L16,-17.2026"/>
<path vector-effect="none" fill-rule="evenodd" d="M-13.1938,20.0088 L20.0088,-13.1938"/>
<path vector-effect="none" fill-rule="evenodd" d="M-9.18505,24.0176 L24.0176,-9.18505"/>
<path vector-effect="none" fill-rule="evenodd" d="M-5.17626,28.0264 L28.0264,-5.17626"/>
<path vector-effect="none" fill-rule="evenodd" d="M-1.16746,32.0352 L32.0352,-1.16746"/>
<path vector-effect="none" fill-rule="evenodd" d="M2.84133,36.044 L36.044,2.84133"/>
<path vector-effect="none" fill-rule="evenodd" d="M6.85013,40.0528 L40.0528,6.85013"/>
<path vector-effect="none" fill-rule="evenodd" d="M10.8589,44.0616 L44.0616,10.8589"/>
<path vector-effect="none" fill-rule="evenodd" d="M14.8677,48.0704 L48.0704,14.8677"/>
</g>

<g fill="none" stroke="none" transform="matrix(1,0,0,1,0,0)"
font-family="MS Shell Dlg 2" font-size="8.25" font-weight="400" font-style="normal" 
>
</g>

<g fill="none" stroke="none" transform="matrix(1,0,0,1,0,0)"
font-family="MS Shell Dlg 2" font-size="8.25" font-weight="400" font-style="normal" 
>
</g>

<g fill="none" stroke="#000000" stroke-opacity="1" stroke-width="0.850394" stroke-linecap="square" stroke-linejoin="bevel" transform="matrix(1,0,0,1,0,0)"
font-family="MS Shell Dlg 2" font-size="8.25" font-weight="400" font-style="normal" 
>
<path vector-effect="none" fill-rule="evenodd" d="M16,49.2026 L-17.2026,16"/>
<path vector-effect="none" fill-rule="evenodd" d="M20.0088,45.1938 L-13.1938,11.9912"/>
<path vector-effect="none" fill-rule="evenodd" d="M24.0176,41.185 L-9.18505,7.98241"/>
<path vector-effect="none" fill-rule="evenodd" d="M28.0264,37.1763 L-5.17626,3.97362"/>
<path vector-effect="none" fill-rule="evenodd" d="M32.0352,33.1675 L-1.16746,-0.0351774"/>
<path vector-effect="none" fill-rule="evenodd" d="M36.044,29.1587 L2.84133,-4.04397"/>
<path vector-effect="none" fill-rule="evenodd" d="M40.0528,25.1499 L6.85013,-8.05277"/>
<path vector-effect="none" fill-rule="evenodd" d="M44.0616,21.1411 L10.8589,-12.0616"/>
<path vector-effect="none" fill-rule="evenodd" d="M48.0704,17.1323 L14.8677,-16.0704"/>
</g>

<g fill="none" stroke="none" transform="matrix(1,0,0,1,0,0)"
font-family="MS Shell Dlg 2" font-size="8.25" font-weight="400" font-style="normal" 
>
</g>

<g fill="none" stroke="#000000" stroke-opacity="1" stroke-width="1.30394" stroke-linecap="square" stroke-linejoin="bevel" transform="matrix(1,0,0,1,0,0)"
font-family="MS Shell Dlg 2" font-size="8.25" font-weight="400" font-style="normal" 
>
<path vector-effect="none" fill-rule="evenodd" d="M0,0 L31,0 L31,31 L0,31 L0,0"/>
</g>
</g>
</svg>
