<?xml version="1.0" encoding="UTF-8" standalone="no"?>
<svg
   enable-background="new 0 0 580 580"
   height="16"
   viewBox="0 0 16 16"
   width="16"
   version="1.1"
   id="svg3"
   sodipodi:docname="cmentarz.svg"
   inkscape:version="1.4 (86a8ad7, 2024-10-11)"
   xmlns:inkscape="http://www.inkscape.org/namespaces/inkscape"
   xmlns:sodipodi="http://sodipodi.sourceforge.net/DTD/sodipodi-0.dtd"
   xmlns="http://www.w3.org/2000/svg"
   xmlns:svg="http://www.w3.org/2000/svg">
  <defs
     id="defs3" />
  <sodipodi:namedview
     id="namedview3"
     pagecolor="#ffffff"
     bordercolor="#000000"
     borderopacity="0.25"
     inkscape:showpageshadow="2"
     inkscape:pageopacity="0.0"
     inkscape:pagecheckerboard="0"
     inkscape:deskcolor="#d1d1d1"
     inkscape:zoom="7.9488555"
     inkscape:cx="25.726974"
     inkscape:cy="33.149426"
     inkscape:window-width="1920"
     inkscape:window-height="1017"
     inkscape:window-x="-8"
     inkscape:window-y="-8"
     inkscape:window-maximized="1"
     inkscape:current-layer="svg3" />
  <path
     d="m 9.03273,4.3555578 -0.155465,-0.0028 -0.03004,-1.829437 v -0.02961 l -0.84723,0.0148 -0.847229,-0.0148 v 0.02961 l -0.03002,1.829437 -0.155465,0.0028 H 5.466192 v 0.02721 0.80643 0.833636 0.01601 l 1.666128,0.01119 0.02044,2.383912 v 0.917291 c 0.04352,-0.005 0.08769,-0.0084 0.132343,-0.01075 0.227079,0.03985 0.470368,0.03365 0.714908,0.02049 0.24452,0.01313 0.487808,0.01936 0.714889,-0.02049 0.04463,0.0023 0.0888,0.0057 0.13232,0.01075 v -0.916382 l 0.02044,-2.384821 1.666148,-0.01119 v -0.01601 -0.833636 -0.80643 -0.02721 z"
     fill="param(fill)"
     fill-opacity="param(fill-opacity)"
     stroke="param(outline)"
     stroke-opacity="param(outline-opacity)"
     stroke-width="0.999998"
     id="path1" />
  <path
     d="M 9.820551,9.8457048 H 6.17015 c -0.120176,0 -0.217571,0.09742 -0.217571,0.2175722 V 13.7137 c 0,0.120174 0.0974,0.217572 0.217571,0.217572 h 3.650401 c 0.120174,0 0.217572,-0.09742 0.217572,-0.217572 v -3.650423 c 2.2e-5,-0.1201752 -0.0974,-0.2175722 -0.217572,-0.2175722 z"
     fill="param(fill)"
     opacity="0.5"
     id="path2"
     style="stroke-width:0.999998" />
  <path
     d="M 62.65531,62.016371 H 37.27995 c -0.83539,0 -1.51243,0.67719 -1.51243,1.51243 v 25.37551 c 0,0.83538 0.67704,1.51243 1.51243,1.51243 h 25.37536 c 0.83538,0 1.51243,-0.6772 1.51243,-1.51243 v -25.37551 c 1.5e-4,-0.83539 -0.67705,-1.51243 -1.51243,-1.51243 z"
     fill="none"
     stroke="param(outline)"
     stroke-width="1"
     id="path3" />
</svg>
